<svg xmlns="http://www.w3.org/2000/svg" viewBox="-0.5 -0.5 24 24" height="24" width="24"><path d="M11.5 0.268a11.5 11.5 0 0 0 -3.565 22.435l0.268 0a0.958 0.958 0 0 0 0.671 -0.23 1.006 1.006 0 0 0 0.345 -0.786v-0.201l0 -1.045a0.47 0.47 0 0 0 -0.182 -0.316 0.479 0.479 0 0 0 -0.393 -0.096c-2.578 0.556 -3.124 -1.054 -3.153 -1.16A4.447 4.447 0 0 0 3.833 16.771l-0.144 -0.105a0.7 0.7 0 0 1 0.364 -0.067 1.418 1.418 0 0 1 1.093 0.843 2.875 2.875 0 0 0 3.833 1.112 0.508 0.508 0 0 0 0.287 -0.345 1.917 1.917 0 0 1 0.537 -1.169 0.479 0.479 0 0 0 0.144 -0.508 0.47 0.47 0 0 0 -0.403 -0.335c-2.271 -0.259 -4.6 -1.054 -4.6 -4.974a3.833 3.833 0 0 1 1.016 -2.664 0.47 0.47 0 0 0 0.086 -0.498A3.412 3.412 0 0 1 6.057 5.75a5.338 5.338 0 0 1 2.415 1.102 0.46 0.46 0 0 0 0.403 0.058A10.216 10.216 0 0 1 11.5 6.565a9.88 9.88 0 0 1 2.635 0.345 0.441 0.441 0 0 0 0.393 -0.058A5.3 5.3 0 0 1 16.943 5.75a3.393 3.393 0 0 1 0 2.281 0.46 0.46 0 0 0 0.096 0.498 3.833 3.833 0 0 1 1.006 2.635c0 3.929 -2.329 4.715 -4.61 4.964a0.47 0.47 0 0 0 -0.403 0.335 0.47 0.47 0 0 0 0.144 0.498 2.137 2.137 0 0 1 0.585 1.677v3.048a1.016 1.016 0 0 0 0.355 0.786 1.131 1.131 0 0 0 1.016 0.182A11.5 11.5 0 0 0 11.5 0.268Z" fill="#000000" stroke-width="1"></path></svg>