<svg xmlns="http://www.w3.org/2000/svg" viewBox="-0.5 -0.5 24 24" height="24" width="24"><g><path d="M2.396 8.146h3.833s0.479 0 0.479 0.479v12.458s0 0.479 -0.479 0.479h-3.833s-0.479 0 -0.479 -0.479V8.625s0 -0.479 0.479 -0.479" fill="#000000" stroke-width="1"></path><path d="M4.293 6.229A2.396 2.396 0 1 0 1.917 3.833a2.386 2.386 0 0 0 2.377 2.396Z" fill="#000000" stroke-width="1"></path><path d="M17.729 21.563h2.875a0.479 0.479 0 0 0 0.479 -0.479v-8.05C21.083 9.42 19.042 7.667 16.186 7.667a4.044 4.044 0 0 0 -3.048 1.227 0.374 0.374 0 0 1 -0.431 0.086A0.383 0.383 0 0 1 12.458 8.625a0.479 0.479 0 0 0 -0.479 -0.479h-2.875A0.479 0.479 0 0 0 8.625 8.625v12.458a0.479 0.479 0 0 0 0.479 0.479h2.875a0.479 0.479 0 0 0 0.479 -0.479v-7.188a2.396 2.396 0 0 1 4.792 0V21.083a0.479 0.479 0 0 0 0.479 0.479Z" fill="#000000" stroke-width="1"></path></g></svg>