<svg xmlns="http://www.w3.org/2000/svg" fill="none" viewBox="-0.5 -0.5 24 24" height="24" width="24"><path fill="#000000" fill-rule="evenodd" d="M21.951 0.291a0.958 0.958 0 0 1 0.048 1.355l-7.797 8.361 8.606 11.423A0.958 0.958 0 0 1 22.042 22.965h-5.25a0.958 0.958 0 0 1 -0.766 -0.381l-6.057 -8.038 -7.565 8.114a0.958 0.958 0 1 1 -1.402 -1.307l7.797 -8.361 -8.606 -11.423A0.958 0.958 0 0 1 0.958 0.034h5.251a0.958 0.958 0 0 1 0.765 0.381l6.057 8.038L20.595 0.339a0.958 0.958 0 0 1 1.355 -0.048Zm-9.727 10.277a0.956 0.956 0 0 1 -0.075 -0.099L5.731 1.95H2.88l14.389 19.1h2.851l-7.897 -10.481Z" clip-rule="evenodd" stroke-width="1"></path></svg>